<?xml version="1.0" encoding="utf-8" standalone="no"?>
<!DOCTYPE svg PUBLIC "-//W3C//DTD SVG 1.1//EN"
  "http://www.w3.org/Graphics/SVG/1.1/DTD/svg11.dtd">
<svg xmlns:xlink="http://www.w3.org/1999/xlink" width="432pt" height="432pt" viewBox="0 0 432 432" xmlns="http://www.w3.org/2000/svg" version="1.1">
 <metadata>
  <rdf:RDF xmlns:dc="http://purl.org/dc/elements/1.1/" xmlns:cc="http://creativecommons.org/ns#" xmlns:rdf="http://www.w3.org/1999/02/22-rdf-syntax-ns#">
   <cc:Work>
    <dc:type rdf:resource="http://purl.org/dc/dcmitype/StillImage"/>
    <dc:date>2025-07-30T15:55:05.021490</dc:date>
    <dc:format>image/svg+xml</dc:format>
    <dc:creator>
     <cc:Agent>
      <dc:title>Matplotlib v3.9.2, https://matplotlib.org/</dc:title>
     </cc:Agent>
    </dc:creator>
   </cc:Work>
  </rdf:RDF>
 </metadata>
 <defs>
  <style type="text/css">*{stroke-linejoin: round; stroke-linecap: butt}</style>
 </defs>
 <g id="figure_1">
  <g id="patch_1">
   <path d="M 0 432 
L 432 432 
L 432 0 
L 0 0 
z
" style="fill: #ffffff"/>
  </g>
  <g id="axes_1">
   <g id="patch_2">
    <path d="M 54 384.48 
L 388.8 384.48 
L 388.8 51.84 
L 54 51.84 
z
" style="fill: #ffffff"/>
   </g>
   <g id="patch_3">
    <path d="M 69.218182 237.881739 
L 373.581818 237.881739 
L 373.581818 202.024032 
L 69.218182 202.024032 
z
" clip-path="url(#pe52673c73b)" style="fill: #cb1b4f; stroke: #cb1b4f; stroke-linejoin: miter"/>
   </g>
   <g id="patch_4">
    <path d="M 69.218182 178.118893 
L 373.581818 178.118893 
L 373.581818 142.261186 
L 69.218182 142.261186 
z
" clip-path="url(#pe52673c73b)" style="fill: #f37852; stroke: #f37852; stroke-linejoin: miter"/>
   </g>
   <g id="matplotlib.axis_1">
    <g id="xtick_1">
     <g id="line2d_1">
      <path d="M 69.218182 384.48 
L 69.218182 51.84 
" clip-path="url(#pe52673c73b)" style="fill: none; stroke: #b0b0b0; stroke-opacity: 0.5; stroke-width: 0.8; stroke-linecap: square"/>
     </g>
     <g id="line2d_2">
      <defs>
       <path id="m48ad33e7f5" d="M 0 0 
L 0 3.5 
" style="stroke: #000000; stroke-width: 0.8"/>
      </defs>
      <g>
       <use xlink:href="#m48ad33e7f5" x="69.218182" y="384.48" style="stroke: #000000; stroke-width: 0.8"/>
      </g>
     </g>
     <g id="text_1">
      <text style="font: 11px 'Arial'; text-anchor: middle" x="69.218182" y="399.353594" transform="rotate(-0 69.218182 399.353594)">0</text>
     </g>
    </g>
    <g id="xtick_2">
     <g id="line2d_3">
      <path d="M 108.031658 384.48 
L 108.031658 51.84 
" clip-path="url(#pe52673c73b)" style="fill: none; stroke: #b0b0b0; stroke-opacity: 0.5; stroke-width: 0.8; stroke-linecap: square"/>
     </g>
     <g id="line2d_4">
      <g>
       <use xlink:href="#m48ad33e7f5" x="108.031658" y="384.48" style="stroke: #000000; stroke-width: 0.8"/>
      </g>
     </g>
     <g id="text_2">
      <text style="font: 11px 'Arial'; text-anchor: middle" x="108.031658" y="399.353594" transform="rotate(-0 108.031658 399.353594)">10000</text>
     </g>
    </g>
    <g id="xtick_3">
     <g id="line2d_5">
      <path d="M 146.845134 384.48 
L 146.845134 51.84 
" clip-path="url(#pe52673c73b)" style="fill: none; stroke: #b0b0b0; stroke-opacity: 0.5; stroke-width: 0.8; stroke-linecap: square"/>
     </g>
     <g id="line2d_6">
      <g>
       <use xlink:href="#m48ad33e7f5" x="146.845134" y="384.48" style="stroke: #000000; stroke-width: 0.8"/>
      </g>
     </g>
     <g id="text_3">
      <text style="font: 11px 'Arial'; text-anchor: middle" x="146.845134" y="399.353594" transform="rotate(-0 146.845134 399.353594)">20000</text>
     </g>
    </g>
    <g id="xtick_4">
     <g id="line2d_7">
      <path d="M 185.65861 384.48 
L 185.65861 51.84 
" clip-path="url(#pe52673c73b)" style="fill: none; stroke: #b0b0b0; stroke-opacity: 0.5; stroke-width: 0.8; stroke-linecap: square"/>
     </g>
     <g id="line2d_8">
      <g>
       <use xlink:href="#m48ad33e7f5" x="185.65861" y="384.48" style="stroke: #000000; stroke-width: 0.8"/>
      </g>
     </g>
     <g id="text_4">
      <text style="font: 11px 'Arial'; text-anchor: middle" x="185.65861" y="399.353594" transform="rotate(-0 185.65861 399.353594)">30000</text>
     </g>
    </g>
    <g id="xtick_5">
     <g id="line2d_9">
      <path d="M 224.472087 384.48 
L 224.472087 51.84 
" clip-path="url(#pe52673c73b)" style="fill: none; stroke: #b0b0b0; stroke-opacity: 0.5; stroke-width: 0.8; stroke-linecap: square"/>
     </g>
     <g id="line2d_10">
      <g>
       <use xlink:href="#m48ad33e7f5" x="224.472087" y="384.48" style="stroke: #000000; stroke-width: 0.8"/>
      </g>
     </g>
     <g id="text_5">
      <text style="font: 11px 'Arial'; text-anchor: middle" x="224.472087" y="399.353594" transform="rotate(-0 224.472087 399.353594)">40000</text>
     </g>
    </g>
    <g id="xtick_6">
     <g id="line2d_11">
      <path d="M 263.285563 384.48 
L 263.285563 51.84 
" clip-path="url(#pe52673c73b)" style="fill: none; stroke: #b0b0b0; stroke-opacity: 0.5; stroke-width: 0.8; stroke-linecap: square"/>
     </g>
     <g id="line2d_12">
      <g>
       <use xlink:href="#m48ad33e7f5" x="263.285563" y="384.48" style="stroke: #000000; stroke-width: 0.8"/>
      </g>
     </g>
     <g id="text_6">
      <text style="font: 11px 'Arial'; text-anchor: middle" x="263.285563" y="399.353594" transform="rotate(-0 263.285563 399.353594)">50000</text>
     </g>
    </g>
    <g id="xtick_7">
     <g id="line2d_13">
      <path d="M 302.099039 384.48 
L 302.099039 51.84 
" clip-path="url(#pe52673c73b)" style="fill: none; stroke: #b0b0b0; stroke-opacity: 0.5; stroke-width: 0.8; stroke-linecap: square"/>
     </g>
     <g id="line2d_14">
      <g>
       <use xlink:href="#m48ad33e7f5" x="302.099039" y="384.48" style="stroke: #000000; stroke-width: 0.8"/>
      </g>
     </g>
     <g id="text_7">
      <text style="font: 11px 'Arial'; text-anchor: middle" x="302.099039" y="399.353594" transform="rotate(-0 302.099039 399.353594)">60000</text>
     </g>
    </g>
    <g id="xtick_8">
     <g id="line2d_15">
      <path d="M 340.912515 384.48 
L 340.912515 51.84 
" clip-path="url(#pe52673c73b)" style="fill: none; stroke: #b0b0b0; stroke-opacity: 0.5; stroke-width: 0.8; stroke-linecap: square"/>
     </g>
     <g id="line2d_16">
      <g>
       <use xlink:href="#m48ad33e7f5" x="340.912515" y="384.48" style="stroke: #000000; stroke-width: 0.8"/>
      </g>
     </g>
     <g id="text_8">
      <text style="font: 11px 'Arial'; text-anchor: middle" x="340.912515" y="399.353594" transform="rotate(-0 340.912515 399.353594)">70000</text>
     </g>
    </g>
    <g id="xtick_9">
     <g id="line2d_17">
      <path d="M 379.725991 384.48 
L 379.725991 51.84 
" clip-path="url(#pe52673c73b)" style="fill: none; stroke: #b0b0b0; stroke-opacity: 0.5; stroke-width: 0.8; stroke-linecap: square"/>
     </g>
     <g id="line2d_18">
      <g>
       <use xlink:href="#m48ad33e7f5" x="379.725991" y="384.48" style="stroke: #000000; stroke-width: 0.8"/>
      </g>
     </g>
     <g id="text_9">
      <text style="font: 11px 'Arial'; text-anchor: middle" x="379.725991" y="399.353594" transform="rotate(-0 379.725991 399.353594)">80000</text>
     </g>
    </g>
    <g id="text_10">
     <text style="font: 11px 'Arial'; text-anchor: middle" x="221.4" y="413.413437" transform="rotate(-0 221.4 413.413437)">Probe Position</text>
    </g>
   </g>
   <g id="matplotlib.axis_2">
    <g id="ytick_1">
     <g id="line2d_19">
      <path d="M 54 369.36 
L 388.8 369.36 
" clip-path="url(#pe52673c73b)" style="fill: none; stroke: #b0b0b0; stroke-opacity: 0.5; stroke-width: 0.8; stroke-linecap: square"/>
     </g>
     <g id="line2d_20">
      <defs>
       <path id="m06635d97dc" d="M 0 0 
L -3.5 0 
" style="stroke: #000000; stroke-width: 0.8"/>
      </defs>
      <g>
       <use xlink:href="#m06635d97dc" x="54" y="369.36" style="stroke: #000000; stroke-width: 0.8"/>
      </g>
     </g>
     <g id="text_11">
      <text style="font: 11px 'Arial'; text-anchor: end" x="47" y="373.296797" transform="rotate(-0 47 373.296797)">−500</text>
     </g>
    </g>
    <g id="ytick_2">
     <g id="line2d_21">
      <path d="M 54 309.597154 
L 388.8 309.597154 
" clip-path="url(#pe52673c73b)" style="fill: none; stroke: #b0b0b0; stroke-opacity: 0.5; stroke-width: 0.8; stroke-linecap: square"/>
     </g>
     <g id="line2d_22">
      <g>
       <use xlink:href="#m06635d97dc" x="54" y="309.597154" style="stroke: #000000; stroke-width: 0.8"/>
      </g>
     </g>
     <g id="text_12">
      <text style="font: 11px 'Arial'; text-anchor: end" x="47" y="313.533951" transform="rotate(-0 47 313.533951)">−400</text>
     </g>
    </g>
    <g id="ytick_3">
     <g id="line2d_23">
      <path d="M 54 249.834308 
L 388.8 249.834308 
" clip-path="url(#pe52673c73b)" style="fill: none; stroke: #b0b0b0; stroke-opacity: 0.5; stroke-width: 0.8; stroke-linecap: square"/>
     </g>
     <g id="line2d_24">
      <g>
       <use xlink:href="#m06635d97dc" x="54" y="249.834308" style="stroke: #000000; stroke-width: 0.8"/>
      </g>
     </g>
     <g id="text_13">
      <text style="font: 11px 'Arial'; text-anchor: end" x="47" y="253.771105" transform="rotate(-0 47 253.771105)">−300</text>
     </g>
    </g>
    <g id="ytick_4">
     <g id="line2d_25">
      <path d="M 54 190.071462 
L 388.8 190.071462 
" clip-path="url(#pe52673c73b)" style="fill: none; stroke: #b0b0b0; stroke-opacity: 0.5; stroke-width: 0.8; stroke-linecap: square"/>
     </g>
     <g id="line2d_26">
      <g>
       <use xlink:href="#m06635d97dc" x="54" y="190.071462" style="stroke: #000000; stroke-width: 0.8"/>
      </g>
     </g>
     <g id="text_14">
      <text style="font: 11px 'Arial'; text-anchor: end" x="47" y="194.008259" transform="rotate(-0 47 194.008259)">−200</text>
     </g>
    </g>
    <g id="ytick_5">
     <g id="line2d_27">
      <path d="M 54 130.308617 
L 388.8 130.308617 
" clip-path="url(#pe52673c73b)" style="fill: none; stroke: #b0b0b0; stroke-opacity: 0.5; stroke-width: 0.8; stroke-linecap: square"/>
     </g>
     <g id="line2d_28">
      <g>
       <use xlink:href="#m06635d97dc" x="54" y="130.308617" style="stroke: #000000; stroke-width: 0.8"/>
      </g>
     </g>
     <g id="text_15">
      <text style="font: 11px 'Arial'; text-anchor: end" x="47" y="134.245413" transform="rotate(-0 47 134.245413)">−100</text>
     </g>
    </g>
    <g id="ytick_6">
     <g id="line2d_29">
      <path d="M 54 70.545771 
L 388.8 70.545771 
" clip-path="url(#pe52673c73b)" style="fill: none; stroke: #b0b0b0; stroke-opacity: 0.5; stroke-width: 0.8; stroke-linecap: square"/>
     </g>
     <g id="line2d_30">
      <g>
       <use xlink:href="#m06635d97dc" x="54" y="70.545771" style="stroke: #000000; stroke-width: 0.8"/>
      </g>
     </g>
     <g id="text_16">
      <text style="font: 11px 'Arial'; text-anchor: end" x="47" y="74.482568" transform="rotate(-0 47 74.482568)">0</text>
     </g>
    </g>
    <g id="text_17">
     <text style="font: 11px 'Arial'; text-anchor: middle" x="15.909062" y="218.16" transform="rotate(-90 15.909062 218.16)">Frequency</text>
    </g>
   </g>
   <g id="line2d_31">
    <path d="M 69.218182 369.36 
L 69.276402 345.454862 
L 69.361792 345.454862 
L 69.439419 343.064348 
L 69.625723 343.064348 
L 69.625723 341.869091 
L 70.794009 341.869091 
L 70.794009 340.673834 
L 70.510671 340.673834 
L 70.510671 339.478577 
L 71.958413 339.478577 
L 71.958413 338.28332 
L 73.639037 338.28332 
L 73.639037 337.088063 
L 70.898805 337.088063 
L 70.898805 335.892806 
L 72.92875 335.892806 
L 72.92875 334.697549 
L 70.343773 334.697549 
L 70.343773 333.502292 
L 71.818685 333.502292 
L 71.818685 332.307036 
L 73.208207 332.307036 
L 73.208207 331.111779 
L 71.224839 331.111779 
L 71.224839 329.916522 
L 71.981701 329.916522 
L 71.981701 328.721265 
L 70.863873 328.721265 
L 70.863873 327.526008 
L 70.607704 327.526008 
L 70.607704 326.330751 
L 71.263652 326.330751 
L 71.263652 325.135494 
L 70.099248 325.135494 
L 70.099248 323.940237 
L 70.413637 323.940237 
L 70.413637 322.74498 
L 70.778484 322.74498 
L 70.778484 321.549723 
L 70.099248 321.549723 
L 70.099248 320.354466 
L 70.301078 320.354466 
L 70.324366 317.963953 
L 70.440806 317.963953 
L 70.487382 315.573439 
L 70.099248 315.573439 
L 70.099248 314.378182 
L 70.301078 314.378182 
L 70.301078 313.182925 
L 70.607704 313.182925 
L 70.607704 311.987668 
L 70.188519 311.987668 
L 70.157468 306.011383 
L 69.994451 306.011383 
L 69.994451 304.816126 
L 70.130299 304.816126 
L 70.130299 303.62087 
L 70.285552 303.62087 
L 70.355417 300.035099 
L 70.611586 300.035099 
L 70.611586 298.839842 
L 70.204044 298.839842 
L 70.204044 297.644585 
L 70.398111 297.644585 
L 70.398111 296.449328 
L 69.901299 296.449328 
L 69.901299 295.254071 
L 70.126417 295.254071 
L 70.126417 294.058814 
L 70.367061 294.058814 
L 70.367061 292.863557 
L 70.033265 292.863557 
L 70.033265 291.6683 
L 70.180756 291.6683 
L 70.262264 288.08253 
L 70.627111 288.08253 
L 70.627111 286.887273 
L 70.079841 286.887273 
L 70.079841 285.692016 
L 70.526196 285.692016 
L 70.526196 284.496759 
L 70.821178 284.496759 
L 70.821178 283.301502 
L 71.418906 283.301502 
L 71.418906 282.106245 
L 72.804547 282.106245 
L 72.804547 280.910988 
L 71.721651 280.910988 
L 71.721651 279.715731 
L 72.098142 279.715731 
L 72.098142 278.520474 
L 72.358192 278.520474 
L 72.358192 277.325217 
L 73.320766 277.325217 
L 73.320766 276.12996 
L 70.487382 276.12996 
L 70.487382 274.934704 
L 70.693094 274.934704 
L 70.693094 273.739447 
L 70.957026 273.739447 
L 70.957026 272.54419 
L 71.28694 272.54419 
L 71.28694 271.348933 
L 75.455507 271.348933 
L 75.455507 270.153676 
L 71.275296 270.153676 
L 71.275296 268.958419 
L 73.002496 268.958419 
L 73.002496 267.763162 
L 72.38148 267.763162 
L 72.38148 266.567905 
L 72.800666 266.567905 
L 72.800666 265.372648 
L 73.107292 265.372648 
L 73.107292 264.177391 
L 71.655668 264.177391 
L 71.655668 262.982134 
L 72.047684 262.982134 
L 72.047684 261.786877 
L 73.654562 261.786877 
L 73.654562 260.591621 
L 72.820072 260.591621 
L 72.820072 259.396364 
L 74.578323 259.396364 
L 74.547272 257.00585 
L 71.678956 257.00585 
L 71.678956 255.810593 
L 75.292491 255.810593 
L 75.292491 254.615336 
L 73.080123 254.615336 
L 73.080123 253.420079 
L 75.552541 253.420079 
L 75.552541 252.224822 
L 74.477408 252.224822 
L 74.477408 251.029565 
L 72.72692 251.029565 
L 72.72692 249.834308 
L 77.566961 249.834308 
L 77.566961 248.639051 
L 74.073748 248.639051 
L 74.011646 245.053281 
L 73.681732 245.053281 
L 73.681732 243.858024 
L 73.856392 243.858024 
L 73.856392 242.662767 
L 78.312179 242.662767 
L 78.312179 241.46751 
L 76.262828 241.46751 
L 76.262828 240.272253 
L 81.277529 240.272253 
L 81.277529 239.076996 
L 79.849193 239.076996 
L 79.849193 237.881739 
L 74.659831 237.881739 
L 74.659831 236.686482 
L 81.390088 236.686482 
L 81.390088 235.491225 
L 73.522596 235.491225 
L 73.522596 234.295968 
L 73.07236 234.295968 
L 73.07236 233.100711 
L 71.702244 233.100711 
L 71.702244 231.905455 
L 71.888549 231.905455 
L 71.888549 230.710198 
L 74.574442 230.710198 
L 74.574442 229.514941 
L 76.204608 229.514941 
L 76.204608 228.319684 
L 76.976996 228.319684 
L 76.976996 227.124427 
L 75.381762 227.124427 
L 75.381762 225.92917 
L 72.474632 225.92917 
L 72.474632 224.733913 
L 72.303853 224.733913 
L 72.303853 223.538656 
L 72.983089 223.538656 
L 72.983089 222.343399 
L 73.70502 222.343399 
L 73.805935 219.952885 
L 74.077629 219.952885 
L 74.077629 218.757628 
L 73.204326 218.757628 
L 73.204326 217.562372 
L 77.004165 217.562372 
L 77.004165 216.367115 
L 80.144175 216.367115 
L 80.144175 215.171858 
L 73.029665 215.171858 
L 73.029665 213.976601 
L 73.642918 213.976601 
L 73.642918 212.781344 
L 71.807041 212.781344 
L 71.807041 211.586087 
L 72.354311 211.586087 
L 72.354311 210.39083 
L 72.975326 210.39083 
L 72.975326 209.195573 
L 76.93042 209.195573 
L 76.93042 208.000316 
L 76.247302 208.000316 
L 76.247302 206.805059 
L 77.830892 206.805059 
L 77.830892 205.609802 
L 75.311898 205.609802 
L 75.311898 204.414545 
L 82.865 204.414545 
L 82.865 203.219289 
L 74.834492 203.219289 
L 74.834492 202.024032 
L 74.42695 202.024032 
L 74.42695 200.828775 
L 74.22512 200.828775 
L 74.22512 199.633518 
L 77.469927 199.633518 
L 77.469927 198.438261 
L 74.151375 198.438261 
L 74.151375 197.243004 
L 73.099529 197.243004 
L 73.099529 196.047747 
L 74.756865 196.047747 
L 74.756865 194.85249 
L 74.186307 194.85249 
L 74.186307 193.657233 
L 80.151938 193.657233 
L 80.151938 192.461976 
L 81.735528 192.461976 
L 81.735528 191.266719 
L 79.600787 191.266719 
L 79.600787 190.071462 
L 79.003059 190.071462 
L 79.003059 188.876206 
L 82.736916 188.876206 
L 82.736916 187.680949 
L 72.734683 187.680949 
L 72.637649 185.290435 
L 71.900193 185.290435 
L 71.900193 184.095178 
L 72.168006 184.095178 
L 72.168006 182.899921 
L 71.63238 182.899921 
L 71.63238 181.704664 
L 73.860274 181.704664 
L 73.860274 180.509407 
L 75.661219 180.509407 
L 75.661219 179.31415 
L 91.372914 179.31415 
L 91.372914 178.118893 
L 221.068145 178.118893 
L 221.068145 176.923636 
L 185.297645 176.923636 
L 185.297645 175.728379 
L 369.071692 175.728379 
L 369.071692 174.533123 
L 139.470574 174.533123 
L 139.470574 173.337866 
L 203.334267 173.337866 
L 203.334267 172.142609 
L 153.804391 172.142609 
L 153.804391 170.947352 
L 178.276287 170.947352 
L 178.276287 169.752095 
L 373.581818 169.752095 
L 373.581818 168.556838 
L 266.836996 168.556838 
L 266.836996 167.361581 
L 185.19673 167.361581 
L 185.19673 166.166324 
L 243.824486 166.166324 
L 243.824486 164.971067 
L 284.369043 164.971067 
L 284.369043 163.77581 
L 272.492119 163.77581 
L 272.492119 162.580553 
L 134.374364 162.580553 
L 134.374364 161.385296 
L 154.999846 161.385296 
L 154.999846 160.19004 
L 174.658871 160.19004 
L 174.658871 158.994783 
L 204.584061 158.994783 
L 204.584061 157.799526 
L 239.294953 157.799526 
L 239.294953 156.604269 
L 363.905619 156.604269 
L 363.905619 155.409012 
L 266.961199 155.409012 
L 266.961199 154.213755 
L 212.680553 154.213755 
L 212.680553 153.018498 
L 132.313369 153.018498 
L 132.313369 151.823241 
L 228.233112 151.823241 
L 228.233112 150.627984 
L 98.370984 150.627984 
L 98.370984 149.432727 
L 112.73197 149.432727 
L 112.73197 148.23747 
L 230.251413 148.23747 
L 230.251413 147.042213 
L 139.303676 147.042213 
L 139.303676 145.846957 
L 145.416798 145.846957 
L 145.416798 144.6517 
L 363.253552 144.6517 
L 363.253552 143.456443 
L 192.664443 143.456443 
L 192.664443 142.261186 
L 77.000284 142.261186 
L 77.000284 141.065929 
L 77.493215 141.065929 
L 77.493215 139.870672 
L 74.279459 139.870672 
L 74.279459 138.675415 
L 73.50319 138.675415 
L 73.50319 137.480158 
L 72.416412 137.480158 
L 72.416412 136.284901 
L 72.090379 136.284901 
L 72.090379 135.089644 
L 70.995839 135.089644 
L 70.995839 133.894387 
L 71.174381 133.894387 
L 71.174381 132.69913 
L 71.682838 132.69913 
L 71.682838 131.503874 
L 73.623511 131.503874 
L 73.623511 130.308617 
L 71.760465 130.308617 
L 71.760465 129.11336 
L 70.281671 129.11336 
L 70.281671 127.918103 
L 70.599942 127.918103 
L 70.599942 126.722846 
L 70.079841 126.722846 
L 70.079841 125.527589 
L 70.293315 125.527589 
L 70.27779 123.137075 
L 70.126417 123.137075 
L 70.126417 121.941818 
L 70.382586 121.941818 
L 70.382586 120.746561 
L 70.902687 120.746561 
L 70.929856 118.356047 
L 71.63238 118.356047 
L 71.63238 117.160791 
L 70.817297 117.160791 
L 70.817297 115.965534 
L 71.616855 115.965534 
L 71.616855 114.770277 
L 70.021621 114.770277 
L 69.947875 112.379763 
L 70.1924 112.379763 
L 70.1924 111.184506 
L 69.936231 111.184506 
L 69.858604 108.793992 
L 69.777096 108.793992 
L 69.843079 106.403478 
L 70.017739 106.403478 
L 70.017739 105.208221 
L 69.742164 105.208221 
L 69.742164 104.012964 
L 69.909062 104.012964 
L 69.870248 101.622451 
L 69.652893 101.622451 
L 69.594673 95.646166 
L 69.493757 95.646166 
L 69.493757 94.450909 
L 69.641249 94.450909 
L 69.571384 90.865138 
L 69.505402 90.865138 
L 69.520927 88.474625 
L 69.64513 88.474625 
L 69.687825 84.888854 
L 69.78874 84.888854 
L 69.78874 83.693597 
L 70.273908 83.693597 
L 70.273908 82.49834 
L 70.565009 82.49834 
L 70.565009 81.303083 
L 70.444688 81.303083 
L 70.444688 80.107826 
L 71.492652 80.107826 
L 71.581923 77.717312 
L 71.841973 77.717312 
L 71.783753 75.326798 
L 71.224839 75.326798 
L 71.224839 74.131542 
L 70.774602 74.131542 
L 70.774602 72.936285 
L 69.617961 72.936285 
L 69.617961 71.741028 
L 69.245351 71.741028 
L 69.218182 66.96 
L 69.218182 66.96 
" clip-path="url(#pe52673c73b)" style="fill: none; stroke: #0000ff; stroke-width: 1.5; stroke-linecap: square"/>
   </g>
   <g id="patch_5">
    <path d="M 54 384.48 
L 54 51.84 
" style="fill: none; stroke: #000000; stroke-width: 0.8; stroke-linejoin: miter; stroke-linecap: square"/>
   </g>
   <g id="patch_6">
    <path d="M 388.8 384.48 
L 388.8 51.84 
" style="fill: none; stroke: #000000; stroke-width: 0.8; stroke-linejoin: miter; stroke-linecap: square"/>
   </g>
   <g id="patch_7">
    <path d="M 54 384.48 
L 388.8 384.48 
" style="fill: none; stroke: #000000; stroke-width: 0.8; stroke-linejoin: miter; stroke-linecap: square"/>
   </g>
   <g id="patch_8">
    <path d="M 54 51.84 
L 388.8 51.84 
" style="fill: none; stroke: #000000; stroke-width: 0.8; stroke-linejoin: miter; stroke-linecap: square"/>
   </g>
   <g id="text_18">
    <text style="font: 13.2px 'Arial'; text-anchor: middle" x="221.4" y="45.84" transform="rotate(-0 221.4 45.84)">Probe: lo (1-1450)</text>
   </g>
  </g>
 </g>
 <defs>
  <clipPath id="pe52673c73b">
   <rect x="54" y="51.84" width="334.8" height="332.64"/>
  </clipPath>
 </defs>
</svg>
