<?xml version="1.0" encoding="utf-8" standalone="no"?>
<!DOCTYPE svg PUBLIC "-//W3C//DTD SVG 1.1//EN"
  "http://www.w3.org/Graphics/SVG/1.1/DTD/svg11.dtd">
<svg xmlns:xlink="http://www.w3.org/1999/xlink" width="432pt" height="432pt" viewBox="0 0 432 432" xmlns="http://www.w3.org/2000/svg" version="1.1">
 <metadata>
  <rdf:RDF xmlns:dc="http://purl.org/dc/elements/1.1/" xmlns:cc="http://creativecommons.org/ns#" xmlns:rdf="http://www.w3.org/1999/02/22-rdf-syntax-ns#">
   <cc:Work>
    <dc:type rdf:resource="http://purl.org/dc/dcmitype/StillImage"/>
    <dc:date>2025-07-30T15:51:41.055048</dc:date>
    <dc:format>image/svg+xml</dc:format>
    <dc:creator>
     <cc:Agent>
      <dc:title>Matplotlib v3.9.2, https://matplotlib.org/</dc:title>
     </cc:Agent>
    </dc:creator>
   </cc:Work>
  </rdf:RDF>
 </metadata>
 <defs>
  <style type="text/css">*{stroke-linejoin: round; stroke-linecap: butt}</style>
 </defs>
 <g id="figure_1">
  <g id="patch_1">
   <path d="M 0 432 
L 432 432 
L 432 0 
L 0 0 
z
" style="fill: #ffffff"/>
  </g>
  <g id="axes_1">
   <g id="patch_2">
    <path d="M 54 384.48 
L 388.8 384.48 
L 388.8 51.84 
L 54 51.84 
z
" style="fill: #ffffff"/>
   </g>
   <g id="patch_3">
    <path d="M 69.218182 237.881739 
L 373.581818 237.881739 
L 373.581818 202.024032 
L 69.218182 202.024032 
z
" clip-path="url(#pf4220d1343)" style="fill: #cb1b4f; stroke: #cb1b4f; stroke-linejoin: miter"/>
   </g>
   <g id="patch_4">
    <path d="M 69.218182 178.118893 
L 373.581818 178.118893 
L 373.581818 142.261186 
L 69.218182 142.261186 
z
" clip-path="url(#pf4220d1343)" style="fill: #f37852; stroke: #f37852; stroke-linejoin: miter"/>
   </g>
   <g id="matplotlib.axis_1">
    <g id="xtick_1">
     <g id="line2d_1">
      <path d="M 69.218182 384.48 
L 69.218182 51.84 
" clip-path="url(#pf4220d1343)" style="fill: none; stroke: #b0b0b0; stroke-opacity: 0.5; stroke-width: 0.8; stroke-linecap: square"/>
     </g>
     <g id="line2d_2">
      <defs>
       <path id="mde24702900" d="M 0 0 
L 0 3.5 
" style="stroke: #000000; stroke-width: 0.8"/>
      </defs>
      <g>
       <use xlink:href="#mde24702900" x="69.218182" y="384.48" style="stroke: #000000; stroke-width: 0.8"/>
      </g>
     </g>
     <g id="text_1">
      <text style="font: 11px 'Arial'; text-anchor: middle" x="69.218182" y="399.353594" transform="rotate(-0 69.218182 399.353594)">0</text>
     </g>
    </g>
    <g id="xtick_2">
     <g id="line2d_3">
      <path d="M 119.616605 384.48 
L 119.616605 51.84 
" clip-path="url(#pf4220d1343)" style="fill: none; stroke: #b0b0b0; stroke-opacity: 0.5; stroke-width: 0.8; stroke-linecap: square"/>
     </g>
     <g id="line2d_4">
      <g>
       <use xlink:href="#mde24702900" x="119.616605" y="384.48" style="stroke: #000000; stroke-width: 0.8"/>
      </g>
     </g>
     <g id="text_2">
      <text style="font: 11px 'Arial'; text-anchor: middle" x="119.616605" y="399.353594" transform="rotate(-0 119.616605 399.353594)">20000</text>
     </g>
    </g>
    <g id="xtick_3">
     <g id="line2d_5">
      <path d="M 170.015028 384.48 
L 170.015028 51.84 
" clip-path="url(#pf4220d1343)" style="fill: none; stroke: #b0b0b0; stroke-opacity: 0.5; stroke-width: 0.8; stroke-linecap: square"/>
     </g>
     <g id="line2d_6">
      <g>
       <use xlink:href="#mde24702900" x="170.015028" y="384.48" style="stroke: #000000; stroke-width: 0.8"/>
      </g>
     </g>
     <g id="text_3">
      <text style="font: 11px 'Arial'; text-anchor: middle" x="170.015028" y="399.353594" transform="rotate(-0 170.015028 399.353594)">40000</text>
     </g>
    </g>
    <g id="xtick_4">
     <g id="line2d_7">
      <path d="M 220.413451 384.48 
L 220.413451 51.84 
" clip-path="url(#pf4220d1343)" style="fill: none; stroke: #b0b0b0; stroke-opacity: 0.5; stroke-width: 0.8; stroke-linecap: square"/>
     </g>
     <g id="line2d_8">
      <g>
       <use xlink:href="#mde24702900" x="220.413451" y="384.48" style="stroke: #000000; stroke-width: 0.8"/>
      </g>
     </g>
     <g id="text_4">
      <text style="font: 11px 'Arial'; text-anchor: middle" x="220.413451" y="399.353594" transform="rotate(-0 220.413451 399.353594)">60000</text>
     </g>
    </g>
    <g id="xtick_5">
     <g id="line2d_9">
      <path d="M 270.811874 384.48 
L 270.811874 51.84 
" clip-path="url(#pf4220d1343)" style="fill: none; stroke: #b0b0b0; stroke-opacity: 0.5; stroke-width: 0.8; stroke-linecap: square"/>
     </g>
     <g id="line2d_10">
      <g>
       <use xlink:href="#mde24702900" x="270.811874" y="384.48" style="stroke: #000000; stroke-width: 0.8"/>
      </g>
     </g>
     <g id="text_5">
      <text style="font: 11px 'Arial'; text-anchor: middle" x="270.811874" y="399.353594" transform="rotate(-0 270.811874 399.353594)">80000</text>
     </g>
    </g>
    <g id="xtick_6">
     <g id="line2d_11">
      <path d="M 321.210297 384.48 
L 321.210297 51.84 
" clip-path="url(#pf4220d1343)" style="fill: none; stroke: #b0b0b0; stroke-opacity: 0.5; stroke-width: 0.8; stroke-linecap: square"/>
     </g>
     <g id="line2d_12">
      <g>
       <use xlink:href="#mde24702900" x="321.210297" y="384.48" style="stroke: #000000; stroke-width: 0.8"/>
      </g>
     </g>
     <g id="text_6">
      <text style="font: 11px 'Arial'; text-anchor: middle" x="321.210297" y="399.353594" transform="rotate(-0 321.210297 399.353594)">100000</text>
     </g>
    </g>
    <g id="xtick_7">
     <g id="line2d_13">
      <path d="M 371.60872 384.48 
L 371.60872 51.84 
" clip-path="url(#pf4220d1343)" style="fill: none; stroke: #b0b0b0; stroke-opacity: 0.5; stroke-width: 0.8; stroke-linecap: square"/>
     </g>
     <g id="line2d_14">
      <g>
       <use xlink:href="#mde24702900" x="371.60872" y="384.48" style="stroke: #000000; stroke-width: 0.8"/>
      </g>
     </g>
     <g id="text_7">
      <text style="font: 11px 'Arial'; text-anchor: middle" x="371.60872" y="399.353594" transform="rotate(-0 371.60872 399.353594)">120000</text>
     </g>
    </g>
    <g id="text_8">
     <text style="font: 11px 'Arial'; text-anchor: middle" x="221.4" y="413.413437" transform="rotate(-0 221.4 413.413437)">Probe Position</text>
    </g>
   </g>
   <g id="matplotlib.axis_2">
    <g id="ytick_1">
     <g id="line2d_15">
      <path d="M 54 369.36 
L 388.8 369.36 
" clip-path="url(#pf4220d1343)" style="fill: none; stroke: #b0b0b0; stroke-opacity: 0.5; stroke-width: 0.8; stroke-linecap: square"/>
     </g>
     <g id="line2d_16">
      <defs>
       <path id="m959d54067c" d="M 0 0 
L -3.5 0 
" style="stroke: #000000; stroke-width: 0.8"/>
      </defs>
      <g>
       <use xlink:href="#m959d54067c" x="54" y="369.36" style="stroke: #000000; stroke-width: 0.8"/>
      </g>
     </g>
     <g id="text_9">
      <text style="font: 11px 'Arial'; text-anchor: end" x="47" y="373.296797" transform="rotate(-0 47 373.296797)">−500</text>
     </g>
    </g>
    <g id="ytick_2">
     <g id="line2d_17">
      <path d="M 54 309.597154 
L 388.8 309.597154 
" clip-path="url(#pf4220d1343)" style="fill: none; stroke: #b0b0b0; stroke-opacity: 0.5; stroke-width: 0.8; stroke-linecap: square"/>
     </g>
     <g id="line2d_18">
      <g>
       <use xlink:href="#m959d54067c" x="54" y="309.597154" style="stroke: #000000; stroke-width: 0.8"/>
      </g>
     </g>
     <g id="text_10">
      <text style="font: 11px 'Arial'; text-anchor: end" x="47" y="313.533951" transform="rotate(-0 47 313.533951)">−400</text>
     </g>
    </g>
    <g id="ytick_3">
     <g id="line2d_19">
      <path d="M 54 249.834308 
L 388.8 249.834308 
" clip-path="url(#pf4220d1343)" style="fill: none; stroke: #b0b0b0; stroke-opacity: 0.5; stroke-width: 0.8; stroke-linecap: square"/>
     </g>
     <g id="line2d_20">
      <g>
       <use xlink:href="#m959d54067c" x="54" y="249.834308" style="stroke: #000000; stroke-width: 0.8"/>
      </g>
     </g>
     <g id="text_11">
      <text style="font: 11px 'Arial'; text-anchor: end" x="47" y="253.771105" transform="rotate(-0 47 253.771105)">−300</text>
     </g>
    </g>
    <g id="ytick_4">
     <g id="line2d_21">
      <path d="M 54 190.071462 
L 388.8 190.071462 
" clip-path="url(#pf4220d1343)" style="fill: none; stroke: #b0b0b0; stroke-opacity: 0.5; stroke-width: 0.8; stroke-linecap: square"/>
     </g>
     <g id="line2d_22">
      <g>
       <use xlink:href="#m959d54067c" x="54" y="190.071462" style="stroke: #000000; stroke-width: 0.8"/>
      </g>
     </g>
     <g id="text_12">
      <text style="font: 11px 'Arial'; text-anchor: end" x="47" y="194.008259" transform="rotate(-0 47 194.008259)">−200</text>
     </g>
    </g>
    <g id="ytick_5">
     <g id="line2d_23">
      <path d="M 54 130.308617 
L 388.8 130.308617 
" clip-path="url(#pf4220d1343)" style="fill: none; stroke: #b0b0b0; stroke-opacity: 0.5; stroke-width: 0.8; stroke-linecap: square"/>
     </g>
     <g id="line2d_24">
      <g>
       <use xlink:href="#m959d54067c" x="54" y="130.308617" style="stroke: #000000; stroke-width: 0.8"/>
      </g>
     </g>
     <g id="text_13">
      <text style="font: 11px 'Arial'; text-anchor: end" x="47" y="134.245413" transform="rotate(-0 47 134.245413)">−100</text>
     </g>
    </g>
    <g id="ytick_6">
     <g id="line2d_25">
      <path d="M 54 70.545771 
L 388.8 70.545771 
" clip-path="url(#pf4220d1343)" style="fill: none; stroke: #b0b0b0; stroke-opacity: 0.5; stroke-width: 0.8; stroke-linecap: square"/>
     </g>
     <g id="line2d_26">
      <g>
       <use xlink:href="#m959d54067c" x="54" y="70.545771" style="stroke: #000000; stroke-width: 0.8"/>
      </g>
     </g>
     <g id="text_14">
      <text style="font: 11px 'Arial'; text-anchor: end" x="47" y="74.482568" transform="rotate(-0 47 74.482568)">0</text>
     </g>
    </g>
    <g id="text_15">
     <text style="font: 11px 'Arial'; text-anchor: middle" x="15.909062" y="218.16" transform="rotate(-90 15.909062 218.16)">Frequency</text>
    </g>
   </g>
   <g id="line2d_27">
    <path d="M 69.316459 369.36 
L 69.223222 369.36 
L 69.2711 364.578972 
L 69.346698 364.578972 
L 69.371897 341.869091 
L 69.502933 341.869091 
L 69.565931 338.28332 
L 70.173232 338.28332 
L 70.173232 337.088063 
L 69.828003 337.088063 
L 69.828003 335.892806 
L 70.24127 335.892806 
L 70.24127 334.697549 
L 69.699487 334.697549 
L 69.699487 333.502292 
L 70.213551 333.502292 
L 70.213551 332.307036 
L 70.838491 332.307036 
L 70.838491 331.111779 
L 70.354666 331.111779 
L 70.354666 329.916522 
L 70.55878 329.916522 
L 70.455463 327.526008 
L 70.145513 327.526008 
L 70.145513 326.330751 
L 70.669656 326.330751 
L 70.669656 325.135494 
L 69.749885 325.135494 
L 69.749885 323.940237 
L 70.218591 323.940237 
L 70.218591 322.74498 
L 70.427744 322.74498 
L 70.427744 321.549723 
L 70.142993 321.549723 
L 70.142993 320.354466 
L 70.349626 320.354466 
L 70.23875 317.963953 
L 70.198431 317.963953 
L 70.173232 315.573439 
L 69.835563 315.573439 
L 69.835563 314.378182 
L 70.135433 314.378182 
L 70.135433 313.182925 
L 70.445383 313.182925 
L 70.445383 311.987668 
L 70.087555 311.987668 
L 70.087555 310.792411 
L 70.309308 310.792411 
L 70.309308 309.597154 
L 71.009846 309.597154 
L 71.009846 308.401897 
L 70.87881 308.401897 
L 70.87881 307.20664 
L 70.100154 307.20664 
L 70.097634 304.816126 
L 70.213551 304.816126 
L 70.213551 303.62087 
L 70.420184 303.62087 
L 70.420184 302.425613 
L 70.23119 302.425613 
L 70.253869 300.035099 
L 70.505862 300.035099 
L 70.505862 298.839842 
L 70.158112 298.839842 
L 70.158112 297.644585 
L 70.581459 297.644585 
L 70.581459 296.449328 
L 69.981718 296.449328 
L 69.981718 295.254071 
L 70.291668 295.254071 
L 70.291668 294.058814 
L 70.634378 294.058814 
L 70.634378 292.863557 
L 70.85865 292.863557 
L 70.85865 291.6683 
L 70.526021 291.6683 
L 70.526021 290.473043 
L 69.961559 290.473043 
L 69.865802 288.08253 
L 70.334507 288.08253 
L 70.334507 286.887273 
L 69.833043 286.887273 
L 69.833043 285.692016 
L 70.069915 285.692016 
L 70.130393 280.910988 
L 70.54114 280.910988 
L 70.56382 278.520474 
L 71.785981 278.520474 
L 71.785981 277.325217 
L 70.216071 277.325217 
L 70.216071 276.12996 
L 70.049756 276.12996 
L 70.049756 274.934704 
L 70.22111 274.934704 
L 70.22111 273.739447 
L 70.047236 273.739447 
L 70.112754 271.348933 
L 70.173232 271.348933 
L 70.263949 265.372648 
L 72.604956 265.372648 
L 72.604956 264.177391 
L 70.198431 264.177391 
L 70.110234 259.396364 
L 70.392465 259.396364 
L 70.359706 257.00585 
L 71.322316 257.00585 
L 71.322316 255.810593 
L 72.15137 255.810593 
L 72.15137 254.615336 
L 70.415144 254.615336 
L 70.415144 253.420079 
L 71.18876 253.420079 
L 71.18876 251.029565 
L 70.349626 251.029565 
L 70.349626 249.834308 
L 70.931728 249.834308 
L 70.931728 248.639051 
L 70.072435 248.639051 
L 70.072435 247.443794 
L 70.23119 247.443794 
L 70.23119 246.248538 
L 70.641937 246.248538 
L 70.641937 245.053281 
L 70.422704 245.053281 
L 70.422704 243.858024 
L 70.745254 243.858024 
L 70.745254 242.662767 
L 70.359706 242.662767 
L 70.359706 241.46751 
L 70.967007 241.46751 
L 70.967007 240.272253 
L 73.015703 240.272253 
L 73.015703 239.076996 
L 71.284517 239.076996 
L 71.284517 237.881739 
L 80.525068 237.881739 
L 80.633425 235.491225 
L 95.846189 235.491225 
L 95.846189 234.295968 
L 126.732862 234.295968 
L 126.732862 233.100711 
L 96.007464 233.100711 
L 96.007464 231.905455 
L 85.554831 231.905455 
L 85.554831 230.710198 
L 78.55953 230.710198 
L 78.55953 229.514941 
L 84.383067 229.514941 
L 84.383067 228.319684 
L 146.93507 228.319684 
L 146.93507 227.124427 
L 130.371628 227.124427 
L 130.371628 225.92917 
L 105.651202 225.92917 
L 105.651202 224.733913 
L 106.462616 224.733913 
L 106.462616 223.538656 
L 126.836179 223.538656 
L 126.836179 222.343399 
L 139.483663 222.343399 
L 139.483663 221.148142 
L 157.48346 221.148142 
L 157.48346 219.952885 
L 280.390094 219.952885 
L 280.390094 218.757628 
L 209.184682 218.757628 
L 209.184682 217.562372 
L 220.811598 217.562372 
L 220.811598 216.367115 
L 143.303864 216.367115 
L 143.303864 215.171858 
L 142.051463 215.171858 
L 142.051463 213.976601 
L 313.199468 213.976601 
L 313.199468 212.781344 
L 147.174463 212.781344 
L 147.174463 211.586087 
L 162.568661 211.586087 
L 162.568661 210.39083 
L 195.582148 210.39083 
L 195.582148 209.195573 
L 301.769105 209.195573 
L 301.769105 208.000316 
L 269.274722 208.000316 
L 269.274722 206.805059 
L 221.353381 206.805059 
L 221.353381 205.609802 
L 196.305365 205.609802 
L 196.305365 204.414545 
L 373.581818 204.414545 
L 373.581818 203.219289 
L 186.114804 203.219289 
L 186.114804 202.024032 
L 83.365019 202.024032 
L 83.365019 200.828775 
L 75.807776 200.828775 
L 75.807776 199.633518 
L 77.148374 199.633518 
L 77.148374 198.438261 
L 76.63935 198.438261 
L 76.63935 197.243004 
L 75.286152 197.243004 
L 75.286152 196.047747 
L 75.061879 196.047747 
L 75.008961 193.657233 
L 75.288672 193.657233 
L 75.288672 192.461976 
L 78.347856 192.461976 
L 78.347856 191.266719 
L 76.740146 191.266719 
L 76.740146 190.071462 
L 74.676331 190.071462 
L 74.676331 188.876206 
L 77.26933 188.876206 
L 77.26933 187.680949 
L 74.804847 187.680949 
L 74.804847 186.485692 
L 73.134139 186.485692 
L 73.134139 185.290435 
L 72.834269 185.290435 
L 72.834269 184.095178 
L 73.333213 184.095178 
L 73.333213 182.899921 
L 75.197955 182.899921 
L 75.197955 181.704664 
L 77.445724 181.704664 
L 77.445724 180.509407 
L 73.43653 180.509407 
L 73.43653 179.31415 
L 77.332328 179.31415 
L 77.332328 178.118893 
L 75.321431 178.118893 
L 75.321431 176.923636 
L 77.034977 176.923636 
L 77.034977 175.728379 
L 76.341999 175.728379 
L 76.341999 174.533123 
L 75.749817 174.533123 
L 75.749817 173.337866 
L 76.029529 173.337866 
L 76.029529 172.142609 
L 74.439458 172.142609 
L 74.439458 170.947352 
L 72.053093 170.947352 
L 72.053093 169.752095 
L 73.74144 169.752095 
L 73.74144 168.556838 
L 98.842375 168.556838 
L 98.842375 167.361581 
L 78.383135 167.361581 
L 78.383135 166.166324 
L 74.615853 166.166324 
L 74.615853 164.971067 
L 74.351261 164.971067 
L 74.351261 163.77581 
L 73.733881 163.77581 
L 73.733881 162.580553 
L 74.671291 162.580553 
L 74.671291 161.385296 
L 72.897267 161.385296 
L 72.897267 160.19004 
L 73.726321 160.19004 
L 73.726321 158.994783 
L 80.084082 158.994783 
L 80.084082 157.799526 
L 76.30924 157.799526 
L 76.276481 155.409012 
L 75.492785 155.409012 
L 75.492785 154.213755 
L 73.930434 154.213755 
L 73.930434 153.018498 
L 72.771271 153.018498 
L 72.771271 151.823241 
L 74.38654 151.823241 
L 74.38654 150.627984 
L 77.481003 150.627984 
L 77.481003 149.432727 
L 73.131619 149.432727 
L 73.131619 148.23747 
L 78.486452 148.23747 
L 78.486452 147.042213 
L 73.728841 147.042213 
L 73.728841 145.846957 
L 75.845574 145.846957 
L 75.845574 144.6517 
L 77.997587 144.6517 
L 77.997587 143.456443 
L 80.338594 143.456443 
L 80.338594 142.261186 
L 75.684299 142.261186 
L 75.684299 141.065929 
L 74.114389 141.065929 
L 74.041311 138.675415 
L 76.767866 138.675415 
L 76.767866 137.480158 
L 75.424748 137.480158 
L 75.424748 136.284901 
L 72.237047 136.284901 
L 72.237047 135.089644 
L 71.82126 135.089644 
L 71.83386 132.69913 
L 70.909049 132.69913 
L 70.909049 131.503874 
L 71.047645 131.503874 
L 71.009846 129.11336 
L 70.654537 129.11336 
L 70.742734 126.722846 
L 70.520981 126.722846 
L 70.520981 125.527589 
L 70.936768 125.527589 
L 70.989686 123.137075 
L 71.763302 123.137075 
L 71.763302 121.941818 
L 72.292486 121.941818 
L 72.292486 120.746561 
L 71.581868 120.746561 
L 71.581868 119.551304 
L 72.718352 119.551304 
L 72.718352 118.356047 
L 72.320205 118.356047 
L 72.320205 117.160791 
L 71.642346 117.160791 
L 71.642346 115.965534 
L 71.481071 115.965534 
L 71.481071 114.770277 
L 70.55626 114.770277 
L 70.55626 113.57502 
L 70.846051 113.57502 
L 70.846051 112.379763 
L 71.551629 112.379763 
L 71.551629 111.184506 
L 70.669656 111.184506 
L 70.669656 109.989249 
L 70.536101 109.989249 
L 70.536101 108.793992 
L 70.190871 108.793992 
L 70.190871 107.598735 
L 69.92628 107.598735 
L 69.92628 106.403478 
L 70.188351 106.403478 
L 70.188351 105.208221 
L 69.691927 105.208221 
L 69.691927 104.012964 
L 70.027077 104.012964 
L 70.027077 102.817708 
L 69.860762 102.817708 
L 69.860762 101.622451 
L 69.742325 101.622451 
L 69.742325 100.427194 
L 69.873361 100.427194 
L 69.805323 96.841423 
L 69.724686 96.841423 
L 69.767525 93.255652 
L 69.858242 93.255652 
L 69.772564 90.865138 
L 69.744845 90.865138 
L 69.767525 83.693597 
L 69.860762 83.693597 
L 69.807843 80.107826 
L 70.092594 80.107826 
L 70.092594 78.912569 
L 69.898561 78.912569 
L 69.898561 77.717312 
L 70.112754 77.717312 
L 70.205991 75.326798 
L 70.510901 75.326798 
L 70.510901 74.131542 
L 71.642346 74.131542 
L 71.642346 72.936285 
L 72.48148 72.936285 
L 72.48148 71.741028 
L 71.574308 71.741028 
L 71.574308 70.545771 
L 70.473103 70.545771 
L 70.473103 69.350514 
L 69.389536 69.350514 
L 69.389536 68.155257 
L 69.2711 68.155257 
L 69.2711 66.96 
L 69.2711 66.96 
" clip-path="url(#pf4220d1343)" style="fill: none; stroke: #0000ff; stroke-width: 1.5; stroke-linecap: square"/>
   </g>
   <g id="patch_5">
    <path d="M 54 384.48 
L 54 51.84 
" style="fill: none; stroke: #000000; stroke-width: 0.8; stroke-linejoin: miter; stroke-linecap: square"/>
   </g>
   <g id="patch_6">
    <path d="M 388.8 384.48 
L 388.8 51.84 
" style="fill: none; stroke: #000000; stroke-width: 0.8; stroke-linejoin: miter; stroke-linecap: square"/>
   </g>
   <g id="patch_7">
    <path d="M 54 384.48 
L 388.8 384.48 
" style="fill: none; stroke: #000000; stroke-width: 0.8; stroke-linejoin: miter; stroke-linecap: square"/>
   </g>
   <g id="patch_8">
    <path d="M 54 51.84 
L 388.8 51.84 
" style="fill: none; stroke: #000000; stroke-width: 0.8; stroke-linejoin: miter; stroke-linecap: square"/>
   </g>
   <g id="text_16">
    <text style="font: 13.2px 'Arial'; text-anchor: middle" x="221.4" y="45.84" transform="rotate(-0 221.4 45.84)">Probe: hi (1-1450)</text>
   </g>
  </g>
 </g>
 <defs>
  <clipPath id="pf4220d1343">
   <rect x="54" y="51.84" width="334.8" height="332.64"/>
  </clipPath>
 </defs>
</svg>
